<svg width="456" height="182" viewBox="0 0 456 182" fill="none" xmlns="http://www.w3.org/2000/svg">
<path d="M116.46 2.52C115.02 0.899999 113.04 0 110.88 0C107.28 0 104.4 1.62 102.6 4.5L64.2599 64.98C63.1799 66.6 61.74 67.32 59.76 67.32C57.78 67.32 56.16 66.6 55.08 64.8L17.6399 5.21999C16.3799 3.41999 15.1199 2.15999 14.0399 1.25999C12.7799 0.539995 11.16 0 9.35997 0C6.83997 0 4.49999 0.899999 2.69997 2.52C0.899991 4.32 0 6.3 0 8.82C0 10.62 0.540005 12.6 1.97998 14.58L49.1399 88.02C49.6799 88.92 50.04 89.82 50.04 90.9V131.22C50.04 133.92 50.9399 136.08 52.7399 137.88C54.5399 139.68 56.7 140.58 59.22 140.58C61.74 140.58 64.08 139.68 65.88 137.88C67.68 136.08 68.5799 133.92 68.5799 131.22V90.9C68.5799 90 68.76 88.92 69.2999 88.02L117 14.58C118.08 12.78 118.8 10.8 118.8 8.63999C118.8 6.29999 117.9 4.32 116.46 2.52Z" fill="#34A769"/>
<path d="M187.976 47.88C180.416 43.56 171.956 41.4 162.596 41.4C152.876 41.4 144.416 43.56 136.856 47.88C129.296 52.2 123.356 57.96 119.216 65.52C114.896 73.08 112.916 81.72 112.916 91.44C112.916 101.16 114.896 109.62 119.216 117.18C123.356 124.74 129.296 130.68 136.856 135C144.416 139.32 152.876 141.3 162.596 141.3C172.136 141.3 180.596 139.32 188.156 135C195.716 130.68 201.476 124.74 205.796 117.18C209.936 109.62 212.096 101.16 212.096 91.44C212.096 81.72 209.936 73.08 205.616 65.52C201.296 57.96 195.536 52.2 187.976 47.88ZM146.036 61.92C150.896 59.04 156.476 57.6 162.596 57.6C168.716 57.6 174.116 59.04 178.976 61.92C183.836 64.8 187.616 68.94 190.316 73.98C193.016 79.2 194.456 84.96 194.456 91.44C194.456 97.92 193.016 103.86 190.316 108.9C187.616 113.94 183.836 117.9 178.976 120.78C174.116 123.66 168.716 125.1 162.596 125.1C156.476 125.1 150.896 123.66 146.036 120.78C141.176 117.9 137.396 113.94 134.696 108.9C131.816 103.86 130.556 97.92 130.556 91.44C130.556 84.96 131.816 79.2 134.696 73.98C137.396 68.94 141.176 64.8 146.036 61.92Z" fill="#34A769"/>
<path d="M309.617 47.88C302.057 43.56 293.597 41.4 284.237 41.4C274.517 41.4 266.057 43.56 258.497 47.88C250.937 52.2 244.997 57.96 240.857 65.52C236.537 73.08 234.557 81.72 234.557 91.44C234.557 101.16 236.357 109.62 240.317 117.18C244.277 124.74 249.677 130.68 256.697 135C263.717 139.32 271.637 141.3 280.637 141.3C288.197 141.3 295.217 139.5 301.337 135.72C307.457 132.12 312.317 126.9 316.097 120.24V129.06C316.097 136.62 314.657 143.28 311.777 148.68C308.897 154.08 304.937 158.22 300.257 161.1C295.397 163.98 289.997 165.24 284.237 165.24C277.937 165.24 272.357 164.16 267.497 162C262.457 159.84 258.497 156.6 255.257 152.28C253.277 149.76 250.757 148.5 247.877 148.5C246.077 148.5 244.457 149.04 242.837 150.12C240.317 151.92 239.057 154.08 239.057 156.6C239.057 158.4 239.597 160.02 241.037 161.64C246.077 168.12 252.197 172.98 259.757 176.4C267.137 179.82 275.237 181.44 283.877 181.44C293.417 181.44 302.057 179.28 309.617 174.78C317.177 170.28 323.117 164.16 327.437 156.24C331.577 148.5 333.737 139.86 333.737 130.32V91.44C333.737 81.72 331.577 73.08 327.257 65.52C322.937 57.96 317.177 52.2 309.617 47.88ZM300.617 120.78C295.757 123.66 290.357 125.1 284.237 125.1C278.117 125.1 272.537 123.66 267.677 120.78C262.817 117.9 259.037 113.94 256.337 108.9C253.457 103.86 252.197 97.92 252.197 91.44C252.197 84.96 253.457 79.2 256.337 73.98C259.037 68.94 262.817 64.8 267.677 61.92C272.537 59.04 278.117 57.6 284.237 57.6C290.357 57.6 295.757 59.04 300.617 61.92C305.477 64.8 309.257 68.94 311.957 73.98C314.657 79.2 316.097 84.96 316.097 91.44C316.097 97.92 314.657 103.86 311.957 108.9C309.257 113.94 305.477 117.9 300.617 120.78Z" fill="#34A769"/>
<path d="M455.377 91.44C455.377 82.26 453.037 73.62 448.717 66.06C444.397 58.5 438.457 52.38 430.897 48.06C423.337 43.74 415.057 41.4 405.877 41.4C396.517 41.4 388.058 43.74 380.498 48.06C372.938 52.38 366.998 58.5 362.678 66.06C358.358 73.62 356.197 82.08 356.197 91.44C356.197 100.8 358.178 109.44 362.138 117C366.098 124.56 371.677 130.5 378.697 134.82C385.897 139.32 393.637 141.48 402.277 141.48H446.737C449.077 141.48 451.057 140.58 452.857 138.96C454.477 137.34 455.377 135.36 455.377 132.84V91.44ZM377.978 108.72C375.098 103.68 373.838 97.92 373.838 91.44C373.838 85.14 375.098 79.38 377.978 74.16C380.858 69.12 384.637 64.98 389.497 62.1C394.357 59.22 399.757 57.6 405.877 57.6C411.817 57.6 417.217 59.22 422.077 62.1C426.937 64.98 430.718 69.12 433.598 74.16C436.298 79.38 437.738 85.14 437.738 91.44C437.738 97.92 436.298 103.68 433.598 108.72C430.718 113.76 426.937 117.9 422.077 120.78C417.217 123.66 411.817 125.1 405.877 125.1C399.757 125.1 394.357 123.66 389.497 120.78C384.637 117.9 380.858 113.76 377.978 108.72Z" fill="#34A769"/>
<path d="M116.46 2.52C115.02 0.899999 113.04 0 110.88 0C107.28 0 104.4 1.62 102.6 4.5L64.2599 64.98C63.1799 66.6 61.74 67.32 59.76 67.32C57.78 67.32 56.16 66.6 55.08 64.8L17.6399 5.21999C16.3799 3.41999 15.1199 2.15999 14.0399 1.25999C12.7799 0.539995 11.16 0 9.35997 0C6.83997 0 4.49999 0.899999 2.69997 2.52C0.899991 4.32 0 6.3 0 8.82C0 10.62 0.540005 12.6 1.97998 14.58L49.1399 88.02C49.6799 88.92 50.04 89.82 50.04 90.9V131.22C50.04 133.92 50.9399 136.08 52.7399 137.88C54.5399 139.68 56.7 140.58 59.22 140.58C61.74 140.58 64.08 139.68 65.88 137.88C67.68 136.08 68.5799 133.92 68.5799 131.22V90.9C68.5799 90 68.76 88.92 69.2999 88.02L117 14.58C118.08 12.78 118.8 10.8 118.8 8.63999C118.8 6.29999 117.9 4.32 116.46 2.52Z" stroke="#34A769"/>
<path d="M187.976 47.88C180.416 43.56 171.956 41.4 162.596 41.4C152.876 41.4 144.416 43.56 136.856 47.88C129.296 52.2 123.356 57.96 119.216 65.52C114.896 73.08 112.916 81.72 112.916 91.44C112.916 101.16 114.896 109.62 119.216 117.18C123.356 124.74 129.296 130.68 136.856 135C144.416 139.32 152.876 141.3 162.596 141.3C172.136 141.3 180.596 139.32 188.156 135C195.716 130.68 201.476 124.74 205.796 117.18C209.936 109.62 212.096 101.16 212.096 91.44C212.096 81.72 209.936 73.08 205.616 65.52C201.296 57.96 195.536 52.2 187.976 47.88ZM146.036 61.92C150.896 59.04 156.476 57.6 162.596 57.6C168.716 57.6 174.116 59.04 178.976 61.92C183.836 64.8 187.616 68.94 190.316 73.98C193.016 79.2 194.456 84.96 194.456 91.44C194.456 97.92 193.016 103.86 190.316 108.9C187.616 113.94 183.836 117.9 178.976 120.78C174.116 123.66 168.716 125.1 162.596 125.1C156.476 125.1 150.896 123.66 146.036 120.78C141.176 117.9 137.396 113.94 134.696 108.9C131.816 103.86 130.556 97.92 130.556 91.44C130.556 84.96 131.816 79.2 134.696 73.98C137.396 68.94 141.176 64.8 146.036 61.92Z" stroke="#34A769"/>
<path d="M309.617 47.88C302.057 43.56 293.597 41.4 284.237 41.4C274.517 41.4 266.057 43.56 258.497 47.88C250.937 52.2 244.997 57.96 240.857 65.52C236.537 73.08 234.557 81.72 234.557 91.44C234.557 101.16 236.357 109.62 240.317 117.18C244.277 124.74 249.677 130.68 256.697 135C263.717 139.32 271.637 141.3 280.637 141.3C288.197 141.3 295.217 139.5 301.337 135.72C307.457 132.12 312.317 126.9 316.097 120.24V129.06C316.097 136.62 314.657 143.28 311.777 148.68C308.897 154.08 304.937 158.22 300.257 161.1C295.397 163.98 289.997 165.24 284.237 165.24C277.937 165.24 272.357 164.16 267.497 162C262.457 159.84 258.497 156.6 255.257 152.28C253.277 149.76 250.757 148.5 247.877 148.5C246.077 148.5 244.457 149.04 242.837 150.12C240.317 151.92 239.057 154.08 239.057 156.6C239.057 158.4 239.597 160.02 241.037 161.64C246.077 168.12 252.197 172.98 259.757 176.4C267.137 179.82 275.237 181.44 283.877 181.44C293.417 181.44 302.057 179.28 309.617 174.78C317.177 170.28 323.117 164.16 327.437 156.24C331.577 148.5 333.737 139.86 333.737 130.32V91.44C333.737 81.72 331.577 73.08 327.257 65.52C322.937 57.96 317.177 52.2 309.617 47.88ZM300.617 120.78C295.757 123.66 290.357 125.1 284.237 125.1C278.117 125.1 272.537 123.66 267.677 120.78C262.817 117.9 259.037 113.94 256.337 108.9C253.457 103.86 252.197 97.92 252.197 91.44C252.197 84.96 253.457 79.2 256.337 73.98C259.037 68.94 262.817 64.8 267.677 61.92C272.537 59.04 278.117 57.6 284.237 57.6C290.357 57.6 295.757 59.04 300.617 61.92C305.477 64.8 309.257 68.94 311.957 73.98C314.657 79.2 316.097 84.96 316.097 91.44C316.097 97.92 314.657 103.86 311.957 108.9C309.257 113.94 305.477 117.9 300.617 120.78Z" stroke="#34A769"/>
<path d="M455.377 91.44C455.377 82.26 453.037 73.62 448.717 66.06C444.397 58.5 438.457 52.38 430.897 48.06C423.337 43.74 415.057 41.4 405.877 41.4C396.517 41.4 388.058 43.74 380.498 48.06C372.938 52.38 366.998 58.5 362.678 66.06C358.358 73.62 356.197 82.08 356.197 91.44C356.197 100.8 358.178 109.44 362.138 117C366.098 124.56 371.677 130.5 378.697 134.82C385.897 139.32 393.637 141.48 402.277 141.48H446.737C449.077 141.48 451.057 140.58 452.857 138.96C454.477 137.34 455.377 135.36 455.377 132.84V91.44ZM377.978 108.72C375.098 103.68 373.838 97.92 373.838 91.44C373.838 85.14 375.098 79.38 377.978 74.16C380.858 69.12 384.637 64.98 389.497 62.1C394.357 59.22 399.757 57.6 405.877 57.6C411.817 57.6 417.217 59.22 422.077 62.1C426.937 64.98 430.718 69.12 433.598 74.16C436.298 79.38 437.738 85.14 437.738 91.44C437.738 97.92 436.298 103.68 433.598 108.72C430.718 113.76 426.937 117.9 422.077 120.78C417.217 123.66 411.817 125.1 405.877 125.1C399.757 125.1 394.357 123.66 389.497 120.78C384.637 117.9 380.858 113.76 377.978 108.72Z" stroke="#34A769"/>
</svg>
