<svg xmlns="http://www.w3.org/2000/svg" width="56" height="56" viewBox="0 0 56 56" >
<path d="M4.66669 46.6667V44.3333C4.66669 35.3127 11.9794 28 21 28V28"  stroke-linecap="round" stroke-linejoin="round"/>
<path d="M36.8755 28.7315C38.373 27.0871 40.9604 27.0871 42.4579 28.7315V28.7315C43.2147 29.5626 44.3025 30.0131 45.4253 29.9607V29.9607C47.647 29.8568 49.4765 31.6864 49.3727 33.908V33.908C49.3202 35.0308 49.7708 36.1186 50.6018 36.8754V36.8754C52.2462 38.373 52.2462 40.9603 50.6018 42.4578V42.4578C49.7708 43.2147 49.3202 44.3024 49.3727 45.4253V45.4253C49.4765 47.6469 47.647 49.4764 45.4253 49.3726V49.3726C44.3025 49.3201 43.2147 49.7707 42.4579 50.6018V50.6018C40.9604 52.2461 38.373 52.2461 36.8755 50.6018V50.6018C36.1187 49.7707 35.0309 49.3201 33.9081 49.3726V49.3726C31.6864 49.4764 29.8569 47.6469 29.9607 45.4253V45.4253C30.0132 44.3024 29.5626 43.2147 28.7316 42.4578V42.4578C27.0872 40.9603 27.0872 38.373 28.7316 36.8754V36.8754C29.5626 36.1186 30.0132 35.0308 29.9607 33.908V33.908C29.8569 31.6864 31.6864 29.8568 33.9081 29.9607V29.9607C35.0309 30.0131 36.1187 29.5626 36.8755 28.7315V28.7315Z" />
<path d="M35.8485 39.6666L38.394 42.2121L43.4849 37.1212"  stroke-linecap="round" stroke-linejoin="round"/>
<path d="M21 28C26.1547 28 30.3334 23.8214 30.3334 18.6667C30.3334 13.512 26.1547 9.33337 21 9.33337C15.8454 9.33337 11.6667 13.512 11.6667 18.6667C11.6667 23.8214 15.8454 28 21 28Z"  stroke-linecap="round" stroke-linejoin="round"/>
</svg>