<svg width="18" height="12" viewBox="0 0 18 12"  xmlns="http://www.w3.org/2000/svg">
<path  clip-rule="evenodd" d="M17.5657 1.55892C17.6932 1.15501 17.5657 0.861393 17.0017 0.861393H15.1265C14.6535 0.861393 14.4351 1.11849 14.3076 1.39349C14.3076 1.39349 13.343 3.74245 11.9959 5.26533C11.559 5.70576 11.3589 5.85257 11.1222 5.85257C10.9947 5.85257 10.8307 5.70576 10.8307 5.30221V1.53994C10.8307 1.06299 10.6853 0.842773 10.2847 0.842773H7.33557C7.0441 0.842773 6.8622 1.06299 6.8622 1.2832C6.8622 1.74189 7.53573 1.85218 7.60842 3.13659V5.92741C7.60842 6.53291 7.501 6.64355 7.26252 6.64355C6.62551 6.64355 5.07828 4.27633 4.15015 1.57897C3.96969 1.04473 3.78635 0.842773 3.31298 0.842773H1.41985C0.873787 0.842773 0.782837 1.09951 0.782837 1.37487C0.782837 1.87044 1.41985 4.36585 3.74983 7.66872C5.29706 9.92458 7.49957 11.137 9.48365 11.137C10.6853 11.137 10.8307 10.8617 10.8307 10.403V8.69638C10.8307 8.14603 10.9399 8.05436 11.3224 8.05436C11.5952 8.05436 12.0868 8.20081 13.1972 9.28363C14.4712 10.568 14.6897 11.1553 15.3997 11.1553H17.2746C17.8207 11.1553 18.0756 10.8799 17.9299 10.3478C17.7662 9.81572 17.1471 9.04515 16.3461 8.12777C15.9093 7.61429 15.254 7.04531 15.0538 6.76995C14.781 6.40293 14.8537 6.25612 15.0538 5.92598C15.0356 5.92598 17.3294 2.65964 17.5657 1.55749" />
</svg>
