<svg width="16" height="14" viewBox="0 0 16 14"  xmlns="http://www.w3.org/2000/svg">
<path  clip-rule="evenodd" d="M7.99985 0.887695C8.65298 0.887695 9.32291 0.904501 9.97221 0.932001L10.7392 0.968667L11.4733 1.01221L12.1608 1.05881L12.7887 1.1077C13.4701 1.15985 14.1113 1.45064 14.5995 1.92891C15.0877 2.40717 15.3916 3.04227 15.4577 3.72249L15.4883 4.04714L15.5455 4.74228C15.599 5.46263 15.6387 6.2479 15.6387 6.99881C15.6387 7.74971 15.599 8.53499 15.5455 9.25533L15.4883 9.95047C15.4783 10.062 15.4684 10.1697 15.4577 10.2751C15.3915 10.9555 15.0875 11.5907 14.5992 12.0689C14.1109 12.5472 13.4695 12.8379 12.7879 12.8899L12.1615 12.938L11.474 12.9854L10.7392 13.0289L9.97221 13.0656C9.31514 13.0942 8.65754 13.1089 7.99985 13.1099C7.34216 13.1089 6.68456 13.0942 6.02749 13.0656L5.26054 13.0289L4.52645 12.9854L3.83895 12.938L3.21103 12.8899C2.5296 12.8378 1.8884 12.547 1.40021 12.0687C0.912026 11.5904 0.608137 10.9553 0.542004 10.2751L0.511448 9.95047L0.454156 9.25533C0.395748 8.50454 0.364662 7.75186 0.360962 6.99881C0.360962 6.2479 0.400684 5.46263 0.454156 4.74228L0.511448 4.04714C0.521379 3.93561 0.531309 3.8279 0.542004 3.72249C0.608111 3.04239 0.911891 2.40739 1.39992 1.92914C1.88795 1.45089 2.52898 1.16002 3.21027 1.1077L3.83742 1.05881L4.52492 1.01221L5.25978 0.968667L6.02673 0.932001C6.68405 0.903457 7.34191 0.888685 7.99985 0.887695ZM6.47207 5.14638V8.85124C6.47207 9.20415 6.85402 9.42415 7.15957 9.24846L10.3679 7.39603C10.4377 7.35584 10.4957 7.29796 10.536 7.22823C10.5764 7.15849 10.5976 7.07936 10.5976 6.99881C10.5976 6.91825 10.5764 6.83912 10.536 6.76938C10.4957 6.69965 10.4377 6.64177 10.3679 6.60158L7.15957 4.74992C7.08988 4.70968 7.01081 4.6885 6.93033 4.68851C6.84985 4.68853 6.7708 4.70973 6.70111 4.74999C6.63143 4.79025 6.57357 4.84815 6.53337 4.91787C6.49316 4.98759 6.47202 5.06666 6.47207 5.14714V5.14638Z" />
</svg>
